<svg width="512" height="512" viewBox="0 0 512 512" fill="none" xmlns="http://www.w3.org/2000/svg">
  <rect width="512" height="512" rx="112" fill="#0D1117"/>
  <rect x="42" y="42" width="428" height="428" rx="92" fill="#161B22" stroke="#2A3441" stroke-width="6"/>
  <path d="M151 365V144H271C318 144 350 175 350 221C350 267 318 298 271 298H209V365H151ZM209 248H263C281 248 292 237 292 221C292 204 281 194 263 194H209V248Z" fill="url(#paint0_linear)"/>
  <path d="M329 365L286 292H345L392 365H329Z" fill="#00C2FF"/>
  <circle cx="365" cy="146" r="26" fill="#7B61FF"/>
  <defs>
    <linearGradient id="paint0_linear" x1="151" y1="254.5" x2="350" y2="254.5" gradientUnits="userSpaceOnUse">
      <stop stop-color="#7B61FF"/>
      <stop offset="1" stop-color="#00C2FF"/>
    </linearGradient>
  </defs>
</svg>
